<?xml version="1.0" encoding="utf-8"?>
<!-- Generator: Adobe Illustrator 25.4.1, SVG Export Plug-In . SVG Version: 6.00 Build 0)  -->
<svg version="1.0" id="Layer_1" xmlns="http://www.w3.org/2000/svg" xmlns:xlink="http://www.w3.org/1999/xlink" x="0px" y="0px"
	 viewBox="0 0 186 178" style="enable-background:new 0 0 186 178;" xml:space="preserve">
<style type="text/css">
	.st0{fill:url(#SVGID_1_);}
	.st1{fill:none;stroke:#000000;stroke-width:45;stroke-miterlimit:10;}
	.st2{fill:none;stroke:#000000;stroke-width:25;stroke-miterlimit:10;}
	.st3{fill:#FFFFFF;}
	.st4{fill:none;stroke:#000000;stroke-width:25;stroke-linecap:round;stroke-miterlimit:10;}
	.st5{fill:none;stroke:#000000;stroke-width:20.8559;stroke-miterlimit:10;}
	.st6{stroke:#000000;stroke-width:25;stroke-miterlimit:10;}
	.st7{fill:none;stroke:#FFFFFF;stroke-width:20.8559;stroke-miterlimit:10;}
	.st8{fill:#EDE8DB;}
	.st9{fill:#FAF7F0;}
	.st10{fill:#3FA2F6;}
	.st11{fill:url(#SVGID_00000016036179611656025660000008853323131688937346_);}
	.st12{fill:#383838;}
	.st13{fill:url(#SVGID_00000134961075867201219280000000349998931293234084_);}
	.st14{fill:url(#SVGID_00000003799671252465416210000001056735421800951996_);}
	.st15{fill:url(#SVGID_00000078017693079509750240000017525225923487103930_);}
	.st16{fill:url(#SVGID_00000132804421106947175530000015213324341821652407_);}
	.st17{fill:url(#SVGID_00000073707568045243033870000013193922343752462255_);}
</style>
<g>
	<path class="st3" d="M42.5,117.1c-4.2,0-7.7,3.4-7.7,7.7v0c0,4.2,3.4,7.7,7.7,7.7h59c2.6,0,5.1,1.5,6.3,3.9l17.1,34
		c5.2,10.3,19.9,10.3,25,0l34.7-69.2c4.6-9.3-2.1-20.2-12.5-20.2l-150.5,0c-1.7,0-2.9-1.8-2.1-3.4l27.2-54.2c0.9-1.7,3.3-1.7,4.2,0
		l15,29.9c2.4,4.7,7.2,7.7,12.5,7.7h64.3c4.2,0,7.7-3.4,7.7-7.7v0c0-4.2-3.4-7.7-7.7-7.7H84.5c-2.6,0-5.1-1.5-6.3-3.9l-17.1-34
		c-5.2-10.3-19.9-10.3-25,0L1.5,77C-3.2,86.2,3.6,97.1,14,97.1l150.5,0c1.7,0,2.9,1.8,2.1,3.4l-27.2,54.2c-0.9,1.7-3.3,1.7-4.2,0
		l-15-29.9c-2.4-4.7-7.2-7.7-12.5-7.7H42.5z"/>
	<ellipse class="st3" cx="22.9" cy="124.8" rx="7.7" ry="7.7"/>
	<ellipse class="st3" cx="161.7" cy="53.2" rx="7.7" ry="7.7"/>
</g>
</svg>
