<svg xmlns="http://www.w3.org/2000/svg" viewBox="0 0 256 256"><path fill="#fff" d="m11.222 180.43l101.75 27.218a224 224 0 0 0 .64 21.683l63.53 16.99a128 128 0 0 1-59.584 9.226l-1.92-.17l-.47-.044l-.896-.095l-1.002-.107q-.838-.101-1.675-.213l-1.141-.15l-1.174-.17q-1.71-.25-3.413-.544l-.448-.086l-.8-.138l-1.141-.214l-.747-.16l-.992-.202l-.8-.17l-1.013-.214l-1.035-.246l-1.003-.234l-.725-.182l-.939-.234l-.96-.256l-1.013-.267l-.874-.245l-1.163-.32l-.661-.213l-.896-.267l-.992-.299l-1.12-.362l-.62-.203l-.852-.277l-.96-.33l-.704-.257l-.47-.16l-.725-.266l-1.077-.395l-.608-.235l-.854-.32l-.928-.373l-.938-.373l-.843-.342l-1.013-.426l-.672-.299l-.672-.288l-.438-.192l-.704-.32l-1.098-.501l-.555-.256l-1.024-.49l-.661-.32l-.896-.427l-.918-.47l-.992-.5l-.554-.289l-1.1-.586l-.607-.32l-.619-.342l-.49-.277l-1.003-.565l-.64-.363l-.544-.32l-.768-.437l-.875-.533l-.992-.598l-.554-.34l-.896-.566l-.651-.416l-.843-.533l-.746-.502l-.566-.373l-.576-.384l-.469-.32l-.47-.32l-.426-.299l-.608-.426l-.81-.576l-.737-.533l-.789-.576l-.597-.448l-.811-.608l-.81-.63l-.918-.714l-.48-.373l-.683-.555l-.789-.64l-.95-.778l-.49-.416l-.49-.416l-.46-.395l-.48-.427l-.65-.565l-.747-.661l-.725-.64l-.661-.619l-.715-.661l-.565-.533l-.939-.896q-.531-.514-1.056-1.035l-.31-.298l-.437-.448l-.736-.747l-.533-.544l-.533-.565a69 69 0 0 1-1.792-1.91l-.854-.938l-.661-.746l-.757-.854l-.448-.522l-.566-.662l-.618-.725l-.491-.597l-.288-.352l-.48-.587l-.704-.874l-.437-.555l-.534-.682l-.213-.267a128 128 0 0 1-15.36-25.619M.342 118.632l121.098 32.391a218 218 0 0 0-5.002 21.449l115.38 30.866a128.8 128.8 0 0 1-19.68 21.384L7.009 169.838l-.17-.49l-.373-1.11q-.273-.813-.534-1.631l-.074-.246a127 127 0 0 1-2.208-7.903l-.32-1.344l-.192-.853l-.224-1.034l-.192-.864l-.192-.96l-.182-.896l-.192-1.003a126 126 0 0 1-.757-4.543l-.181-1.259l-.118-.885l-.138-1.088a128 128 0 0 1-.203-1.717l-.053-.501c-.797-7.6-.919-15.256-.363-22.878m16.992-54.928L144.78 97.793a218 218 0 0 0-10.773 19.997l120.48 32.232a126.4 126.4 0 0 1-7.126 25.224l-123.2-32.957L1.323 109.44l.16-1.066l.086-.523l.106-.714l.16-.928l.192-1.046c.278-1.578.598-3.146.94-4.714l.298-1.322l.213-.907l.256-1.034c.235-.96.48-1.92.747-2.859l.298-1.088l.246-.885l.32-1.066l.266-.875l.32-1.024l.278-.875l.33-1.013a127 127 0 0 1 10.774-23.805zm47.381-46.928l120.373 32.189a222 222 0 0 0-18.005 18.355l83.445 22.323A127.8 127.8 0 0 1 256 118.068L22.465 55.61l.48-.693l.288-.427l.426-.586l.491-.694l.587-.81l.576-.768l.682-.917l.534-.694l.608-.778l.586-.747l.64-.789l.587-.736l.693-.821l.576-.704l.704-.821l.566-.64l.768-.875l.565-.64l.715-.789l.576-.619l.778-.832l.619-.64l.672-.714l1.792-1.813l1.067-1.045l.629-.598l.81-.757a129 129 0 0 1 24.235-17.886M128.182.01h1.034l.875.01l.736.011l.576.021l.725.022l.491.01l.81.032l.502.022l.64.032l.576.021l.928.053l1.12.075l1.536.117l.939.075l.469.043l.821.085l.875.085l.501.054l1.088.128l.534.064l1.152.149l.864.107l.448.064l.693.106l2.208.341l.747.128l.693.118l1.493.277l.982.192l1.173.235l.49.106l.8.171l.438.107l.661.138l.448.107l.694.16l.522.128l.758.181l1.024.256l1.194.32l1.206.32l1.205.341l.533.16l.747.214l.832.256l.779.245l.533.17l.533.171l.81.267l1.057.352l1.088.384l.512.181l.683.246l.992.362l1.173.437l1.237.48l1.067.427l.501.213l.64.256l.438.192l.672.278l.426.192l.608.266l1.174.512l1.066.49l.79.374l.8.384l.64.299l.98.49l.972.48l1.088.555l.565.298l.523.278l.49.256l.64.352l.438.234l.554.31l.939.533l1.13.64l.929.544l.608.362l.565.342l1.024.629l.939.587l1.045.66l.384.257l.683.437l.896.597l.426.288l.662.448l.66.459l.246.181c.576.395 1.152.8 1.717 1.216l.886.64l.693.512l.597.459l.918.693l.874.683l.427.32l.533.437l.918.736l.842.693l.907.757a129 129 0 0 1 20.363 21.662L77.035 10.612l.662-.288l.693-.298l.864-.363l.917-.373c1.206-.48 2.422-.96 3.638-1.397l1.024-.374l.992-.352l.896-.32l1.024-.33c.928-.32 1.877-.619 2.816-.907l.97-.288l.918-.267l1.088-.32l.906-.245l1.067-.277l.917-.256l.96-.245l.97-.235l1.014-.235l.96-.213l1.045-.224l.971-.213l1.013-.192l.982-.192l1.066-.192l.971-.17l1.045-.182l.982-.15l1.034-.16l.982-.138l1.088-.139l.97-.128l1.12-.128l.96-.106l1.12-.107a69 69 0 0 1 2.987-.256l1.13-.085l.96-.054l1.174-.064l.992-.042l1.067-.043l1.034-.021L126.08.02l2.102-.02z"/></svg>