<svg viewBox="2 3 51 34" fill="none" xmlns="http://www.w3.org/2000/svg">
<path d="M81.5685 22.9561C81.5685 20.8598 81.5685 18.7606 81.5685 16.6643C81.5685 15.427 81.8461 15.0957 83.0766 14.8172C84.13 14.5797 84.6703 13.9875 84.771 12.9584C84.8626 12.0319 85.3388 11.6068 86.3066 11.6068C89.7688 11.6068 93.2308 11.6038 96.6898 11.6068C97.6271 11.6068 98.1309 12.0759 98.1677 12.9408C98.2105 14.0432 98.8576 14.7087 100.03 14.8582C101.175 15.0078 101.44 15.3508 101.419 16.6731C101.404 17.5849 100.986 17.9924 99.9596 18.098C99.0194 18.1947 98.2043 18.8749 98.1798 19.5844C98.1523 20.3702 98.9249 21.1559 99.8712 21.3054C101.187 21.5136 101.419 21.7746 101.419 23.0558C101.419 25.1726 101.419 24.9556 101.419 27.0726C101.419 28.0224 100.921 28.5003 99.9382 28.5091C99.7978 28.5091 99.6545 28.5091 99.514 28.5091C98.6104 28.4944 98.1309 28.04 98.128 27.1751C98.1218 25.1168 98.128 25.3926 98.128 23.3343C98.128 22.1059 97.4013 21.3348 96.1252 21.326C93.069 21.3025 90.0131 21.3025 86.9539 21.326C85.6504 21.3348 84.8991 22.1059 84.8933 23.3519C84.8871 25.3515 84.8839 25.0172 84.8962 27.0197C84.8991 27.6324 84.7587 28.2101 84.1239 28.4007C83.4399 28.6087 82.6369 28.7408 82.0509 28.2218C81.7607 27.9637 81.6021 27.4418 81.5928 27.0373C81.5501 24.903 81.5714 25.0992 81.5714 22.962L81.5685 22.9561ZM91.4173 14.8465C89.9429 14.8465 88.4652 14.8406 86.9905 14.8524C86.6699 14.8524 86.3373 14.8817 86.0351 14.9755C84.8383 15.3508 84.5115 16.6643 85.3695 17.5409C85.8426 18.0247 86.4531 18.1068 87.0914 18.1068C89.9824 18.1068 92.8736 18.1097 95.7648 18.1038C96.0641 18.1038 96.3786 18.0804 96.6626 17.9983C97.3984 17.7901 97.9235 17.3269 98.018 16.5851C98.1005 15.9284 97.7187 15.4094 97.1266 15.1221C96.7632 14.9462 96.3174 14.867 95.9084 14.8582C94.4124 14.8289 92.9166 14.8465 91.4205 14.8465H91.4173Z" fill="white"/>
<path d="M145.112 28.5471C143.393 28.5471 141.671 28.5471 139.952 28.5471C138.945 28.5471 138.56 28.2158 138.435 27.2688C138.276 26.052 137.714 25.5125 136.417 25.3309C135.641 25.2223 135.214 24.7944 135.211 24.0437C135.201 20.6457 135.201 19.5814 135.211 16.1833C135.211 15.4152 135.614 15.0047 136.404 14.8933C137.723 14.7086 138.276 14.1662 138.441 12.8967C138.551 12.0318 139.015 11.6331 139.934 11.6331C143.396 11.6301 146.855 11.6301 150.317 11.6331C151.257 11.6331 151.773 12.1022 151.807 12.9583C151.852 14.0724 152.485 14.7614 153.654 14.8757C154.246 14.9344 154.777 15.0927 154.945 15.6585C155.138 16.3094 155.235 17.0248 154.783 17.6229C154.216 18.3764 153.397 18.1037 152.665 17.9513C152.066 17.8281 151.788 17.3884 151.743 16.7961C151.648 15.5501 150.924 14.8875 149.627 14.8845C146.571 14.8728 143.515 14.8728 140.459 14.8845C139.308 14.8904 138.477 15.5882 138.52 16.4648C138.563 17.3268 139.247 18.0187 140.157 18.0304C142.339 18.0598 144.519 18.0686 146.702 18.0539C147.746 18.0451 148.393 18.5318 148.418 19.4378C148.455 20.8157 148.055 21.276 146.809 21.279C144.663 21.2819 142.519 21.279 140.373 21.279C139.204 21.279 138.529 21.9152 138.517 23.041C138.505 24.0116 138.511 22.6482 138.517 23.6186C138.517 24.4219 139.042 25.0787 139.857 25.2605C140.169 25.3309 140.498 25.3512 140.819 25.3512C143.631 25.3571 146.446 25.36 149.258 25.3512C150.927 25.3512 151.556 24.8061 151.752 23.2287C151.837 22.5514 152.286 22.1439 152.997 22.1116C153.3 22.0999 153.605 22.094 153.907 22.1204C154.084 22.1351 154.271 22.1849 154.423 22.267C154.991 22.5631 155.214 23.3577 155.019 24.3194C154.9 24.9027 154.472 25.281 153.779 25.3221C152.994 25.3689 152.353 25.6446 151.987 26.3249C151.856 26.5681 151.825 26.8817 151.813 27.1634C151.77 28.1132 151.337 28.5382 150.332 28.5412C148.592 28.5471 146.852 28.5412 145.112 28.5412V28.5471Z" fill="white"/>
<path d="M132.298 22.841C132.298 25.037 132.298 24.8963 132.298 27.0923C132.298 28.1126 131.849 28.5347 130.784 28.5435C130.701 28.5435 130.622 28.5435 130.539 28.5435C129.391 28.5406 129.001 28.174 128.997 27.0806C128.995 23.6415 128.997 22.539 128.997 19.0999C128.997 18.3435 129.056 17.5783 128.967 16.8307C128.909 16.3381 128.756 15.7605 128.427 15.4087C127.566 14.4793 126.149 14.8429 125.749 16.0361C125.67 16.2736 125.703 16.5551 125.59 16.772C125.395 17.1532 125.209 17.6135 124.873 17.8422C124.204 18.2937 123.908 18.8302 123.914 19.5984C123.933 21.7943 123.924 21.6536 123.92 23.8495C123.92 24.911 123.444 25.3448 122.308 25.3477C121.115 25.3506 120.626 24.9286 120.623 23.8613C120.617 21.6653 120.608 21.8061 120.629 19.6101C120.635 18.8155 120.33 18.2644 119.634 17.8128C119.313 17.6047 119.133 17.159 118.959 16.7896C118.779 16.4085 118.746 15.9599 118.535 15.5993C118.196 15.0158 117.591 14.7813 116.926 14.9044C116.264 15.0305 115.824 15.4791 115.665 16.1123C115.577 16.4671 115.561 16.8424 115.561 17.2089C115.555 21.249 115.552 22.9554 115.561 26.9954C115.561 27.5672 115.543 28.221 114.92 28.3676C114.273 28.523 113.525 28.4789 112.869 28.3294C112.6 28.268 112.295 27.6932 112.291 27.3502C112.255 22.7853 112.261 20.5542 112.273 15.9921C112.273 15.2973 112.768 14.8692 113.665 14.6875C114.987 14.4207 115.341 14.0747 115.589 12.8052C115.763 11.911 116.291 11.5973 117.561 11.6383C118.392 11.6647 118.846 12.1015 118.938 12.9606C119.051 14.0131 119.582 14.6669 120.535 14.8311C120.941 14.8985 121.368 14.8722 121.783 14.8575C122.519 14.834 123.267 14.8663 123.984 14.7402C125.026 14.5585 125.471 14.0073 125.612 12.9752C125.74 12.0458 126.152 11.6559 127.032 11.6383C128.326 11.609 128.793 11.9139 128.982 12.899C129.208 14.0776 129.743 14.5526 130.994 14.6933C131.861 14.7901 132.292 15.2387 132.295 16.0801C132.301 18.3347 132.295 20.5864 132.295 22.841H132.298Z" fill="white"/>
<path d="M60 22.9913C60 20.8539 60 18.7166 60 16.5822C60 15.4856 60.3388 15.0928 61.4472 14.867C62.5279 14.6471 63.0834 14.0578 63.2148 12.9994C63.337 12.0084 63.7612 11.639 64.7992 11.6361C68.2401 11.6361 71.6839 11.6331 75.1245 11.6361C76.0618 11.6361 76.5656 12.0964 76.6145 12.9701C76.6785 14.093 77.3043 14.738 78.4677 14.8875C79.6063 15.0341 79.8597 15.3625 79.8383 16.6555C79.8202 17.6464 79.4598 18.0247 78.4432 18.1273C77.2771 18.2445 76.6633 18.8632 76.6145 19.9802C76.5747 20.895 76.0984 21.3348 75.1002 21.3377C72.0625 21.3435 69.0247 21.3993 65.9901 21.3201C63.9476 21.2673 63.2086 19.9831 63.2759 21.5693C63.3523 23.3724 63.2941 25.1814 63.2941 26.9874C63.2941 28.2013 62.9339 28.5414 61.664 28.5443C60.3876 28.5443 60 28.1925 60 27.0079C60 24.8912 60 25.108 60 22.9913ZM69.8429 14.8817C68.3867 14.8817 66.9272 14.8758 65.4709 14.8875C65.1505 14.8875 64.8176 14.911 64.5122 14.9989C63.2513 15.3654 62.8699 16.7024 63.8192 17.5585C64.1459 17.8517 64.6649 18.0979 65.1017 18.1038C68.2582 18.1507 71.4151 18.1361 74.5719 18.1214C74.8621 18.1214 75.1705 18.0129 75.4422 17.8957C76.0618 17.6289 76.465 17.1392 76.4708 16.4971C76.477 15.8521 76.0618 15.3537 75.4481 15.0957C75.1093 14.952 74.7062 14.8963 74.3309 14.8905C72.8348 14.867 71.3358 14.8817 69.8397 14.8817H69.8429Z" fill="white"/>
<path d="M104.888 21.2035C104.888 18.5238 104.888 15.8441 104.888 13.1672C104.888 12.1088 105.38 11.6368 106.473 11.6309C107.752 11.6251 108.253 12.0414 108.255 13.1526C108.262 18.5678 108.262 21.6492 108.255 27.0673C108.255 28.1551 107.773 28.5537 106.518 28.5508C105.367 28.5478 104.894 28.1258 104.891 27.082C104.888 24.3437 104.891 23.9419 104.891 21.2035H104.888Z" fill="white"/>
<path d="M158.028 28.5682L158.285 27.7268C159.195 27.6771 159.86 27.5273 160.282 27.2812C160.703 27.0348 161.042 26.472 161.298 25.5983L164.571 14.6096C164.69 14.246 164.752 13.9323 164.752 13.6684C164.752 13.2228 164.596 12.9355 164.287 12.8035C163.979 12.6716 163.478 12.5983 162.791 12.5807L163.048 11.7393H170.189L169.933 12.5807C168.953 12.5983 168.29 12.7449 167.948 13.0264C167.603 13.3078 167.313 13.8443 167.072 14.636L163.723 25.8973C163.653 26.1437 163.619 26.3663 163.619 26.5657C163.619 26.947 163.781 27.2313 164.107 27.4189C164.434 27.6096 165.002 27.7121 165.808 27.7297L165.551 28.5712H158.026L158.028 28.5682Z" fill="white"/>
<path d="M176.74 28.7896C176.276 28.7896 175.904 28.6603 175.62 28.4054C175.336 28.1504 175.196 27.7898 175.196 27.3293C175.196 26.8194 175.403 26.1098 175.815 25.2008L177.672 21.0171C177.98 20.158 178.136 19.5658 178.136 19.2345C178.136 18.7243 177.879 18.4663 177.363 18.4663C176.695 18.4663 175.904 19.0204 174.991 20.1257C174.081 21.2311 173.239 22.5387 172.466 24.0486C171.694 25.5585 171.04 27.0655 170.506 28.5666H168.522L171.202 20.0261C171.373 19.4807 171.459 19.0849 171.459 18.8387C171.459 18.5924 171.34 18.4663 171.099 18.4663C170.653 18.4663 170.057 19.1084 169.319 20.3955L168.494 20.1492C169.664 17.7392 170.934 16.5342 172.307 16.5342C172.753 16.5342 173.101 16.6485 173.352 16.8802C173.602 17.1118 173.724 17.4401 173.724 17.8711C173.724 18.349 173.587 18.9325 173.312 19.6156C173.037 20.3017 172.427 21.6826 171.483 23.7613H171.843C173.165 21.1372 174.316 19.2784 175.296 18.179C176.276 17.0824 177.29 16.5342 178.337 16.5342C179.024 16.5342 179.558 16.6925 179.934 17.0033C180.313 17.317 180.502 17.7714 180.502 18.3637C180.502 19.0556 180.294 19.8413 179.882 20.7151L177.922 25.2213C177.629 25.8487 177.482 26.2622 177.482 26.4587C177.482 26.7225 177.611 26.8543 177.87 26.8543C178.316 26.8543 178.927 26.2035 179.699 24.8988L180.523 25.1452C179.372 27.5698 178.108 28.7837 176.734 28.7837L176.74 28.7896Z" fill="white"/>
<path d="M186.843 18.4715L183.954 25.7983C183.851 26.0447 183.799 26.2673 183.799 26.4668C183.799 26.7308 183.927 26.8627 184.187 26.8627C184.806 26.8627 185.664 26.1296 186.763 24.6607L187.563 24.8837C186.171 27.49 184.66 28.7947 183.026 28.7947C182.614 28.7947 182.245 28.6716 181.918 28.4223C181.591 28.1761 181.43 27.8125 181.43 27.3346C181.43 26.8069 181.601 26.1472 181.946 25.3557L184.858 18.4745H182.41L182.77 17.2871H185.27L186.147 14.9123L188.699 14.7129L187.41 17.2871H190.299L189.938 18.4745H186.846L186.843 18.4715Z" fill="white"/>
<path d="M198.958 18.5435C198.958 19.6986 198.222 20.7336 196.754 21.6513C195.286 22.566 193.417 23.0322 191.149 23.0498C191.03 23.6273 190.968 24.1228 190.968 24.5363C190.968 26.0871 191.698 26.8643 193.16 26.8643C194.345 26.8643 195.395 26.1371 196.305 24.6858L197.105 24.9085C196.949 25.3044 196.754 25.7091 196.513 26.1224C196.271 26.5359 195.96 26.9638 195.572 27.4094C195.185 27.8552 194.712 28.2188 194.156 28.4973C193.597 28.7787 192.999 28.9193 192.364 28.9193C191.28 28.9193 190.425 28.635 189.799 28.0661C189.17 27.4975 188.859 26.6032 188.859 25.3807C188.859 24.1581 189.182 22.8475 189.827 21.4959C190.471 20.1443 191.381 18.9804 192.559 18.007C193.734 17.0336 194.968 16.5469 196.259 16.5469C198.064 16.5469 198.964 17.2154 198.964 18.5523L198.958 18.5435ZM195.426 17.8252C194.687 17.8252 193.936 18.2503 193.17 19.1005C192.406 19.9508 191.817 20.9623 191.405 22.1321C192.916 21.9679 194.119 21.537 195.014 20.845C195.908 20.1531 196.354 19.4436 196.354 18.7165C196.354 18.1213 196.046 17.8252 195.426 17.8252Z" fill="white"/>
<path d="M200.065 28.7907C199.567 28.7907 199.186 28.6588 198.917 28.3948C198.651 28.131 198.517 27.7674 198.517 27.3072C198.517 26.7471 198.706 25.9467 199.085 24.9058L202.849 14.2134C203.072 13.6035 203.115 13.1579 202.977 12.8764C202.84 12.5949 202.504 12.4395 201.973 12.4073L200.969 12.334L201.149 11.6421L205.35 11H205.994L201.045 25.0583C200.77 25.8354 200.633 26.3045 200.633 26.4687C200.633 26.7324 200.761 26.8646 201.02 26.8646C201.674 26.8646 202.593 25.9497 203.777 24.1172L204.602 24.3402C203.793 25.9232 203.048 27.0637 202.361 27.7557C201.674 28.4477 200.907 28.7966 200.068 28.7966L200.065 28.7907Z" fill="white"/>
<path d="M206.819 28.7907C206.321 28.7907 205.939 28.6588 205.671 28.3948C205.405 28.131 205.271 27.7674 205.271 27.3072C205.271 26.7471 205.46 25.9467 205.839 24.9058L209.603 14.2134C209.826 13.6035 209.869 13.1579 209.731 12.8764C209.594 12.5949 209.258 12.4395 208.727 12.4073L207.723 12.334L207.902 11.6421L212.103 11H212.748L207.799 25.0583C207.524 25.8354 207.387 26.3045 207.387 26.4687C207.387 26.7324 207.515 26.8646 207.774 26.8646C208.428 26.8646 209.347 25.9497 210.531 24.1172L211.355 24.3402C210.546 25.9232 209.802 27.0637 209.114 27.7557C208.428 28.4477 207.661 28.7966 206.822 28.7966L206.819 28.7907Z" fill="white"/>
<path d="M221.741 18.5435C221.741 19.6986 221.006 20.7336 219.537 21.6513C218.068 22.566 216.2 23.0322 213.932 23.0498C213.812 23.6273 213.752 24.1228 213.752 24.5363C213.752 26.0871 214.481 26.8643 215.944 26.8643C217.128 26.8643 218.178 26.1371 219.088 24.6858L219.888 24.9085C219.732 25.3044 219.537 25.7091 219.296 26.1224C219.055 26.5359 218.743 26.9638 218.355 27.4094C217.968 27.8552 217.494 28.2188 216.939 28.4973C216.38 28.7787 215.782 28.9193 215.147 28.9193C214.063 28.9193 213.208 28.635 212.582 28.0661C211.953 27.4975 211.642 26.6032 211.642 25.3807C211.642 24.1581 211.966 22.8475 212.61 21.4959C213.254 20.1443 214.164 18.9804 215.342 18.007C216.518 17.0336 217.751 16.5469 219.042 16.5469C220.847 16.5469 221.747 17.2154 221.747 18.5523L221.741 18.5435ZM218.209 17.8252C217.47 17.8252 216.719 18.2503 215.953 19.1005C215.189 19.9508 214.6 20.9623 214.188 22.1321C215.699 21.9679 216.902 21.537 217.797 20.845C218.691 20.1531 219.137 19.4436 219.137 18.7165C219.137 18.1213 218.829 17.8252 218.209 17.8252Z" fill="white"/>
<path d="M224.707 28.9127C223.675 28.9127 222.854 28.6281 222.246 28.0595C221.636 27.4906 221.33 26.6024 221.33 25.3973C221.33 24.1922 221.639 22.8641 222.258 21.5125C222.878 20.1609 223.757 18.9911 224.899 18.0089C226.041 17.0267 227.25 16.5371 228.52 16.5371C229.415 16.5371 230.117 16.7511 230.633 17.1792C231.149 17.6072 231.405 18.135 231.405 18.7624C231.405 19.2725 231.265 19.6859 230.981 19.9997C230.697 20.3134 230.315 20.4688 229.833 20.4688C229.112 20.4688 228.7 20.1462 228.596 19.5042C228.578 19.3898 228.572 19.0908 228.572 18.6129C228.572 18.135 228.511 17.7802 228.392 17.5486C227.085 17.5662 225.934 18.3519 224.939 19.9117C223.943 21.4715 223.443 23.0254 223.443 24.5764C223.443 26.1272 224.13 26.8544 225.504 26.8544C226.673 26.8544 227.711 26.1213 228.624 24.6525L229.424 24.8754C229.253 25.2886 229.051 25.6963 228.819 26.101C228.587 26.5055 228.282 26.9337 227.903 27.388C227.525 27.8424 227.058 28.209 226.499 28.4903C225.94 28.772 225.342 28.9127 224.707 28.9127Z" fill="white"/>
<path d="M236.432 18.4715L233.544 25.7983C233.44 26.0447 233.388 26.2673 233.388 26.4668C233.388 26.7308 233.517 26.8627 233.776 26.8627C234.396 26.8627 235.254 26.1296 236.353 24.6607L237.153 24.8837C235.76 27.49 234.249 28.7947 232.616 28.7947C232.204 28.7947 231.834 28.6716 231.508 28.4223C231.181 28.1761 231.019 27.8125 231.019 27.3346C231.019 26.8069 231.19 26.1472 231.535 25.3557L234.448 18.4745H231.999L232.359 17.2871H234.86L235.736 14.9123L238.288 14.7129L237 17.2871H239.888L239.528 18.4745H236.435L236.432 18.4715Z" fill="white"/>
<path d="M36.7084 18.2266C36.656 18.2284 36.5914 18.2306 36.5071 18.2306L36.5023 18.2239C36.2652 18.2777 35.9705 18.2583 35.6691 18.2385C34.7753 18.1798 33.822 18.1172 34.138 19.9454C34.2085 20.3481 33.7202 20.4471 33.3964 20.4638C32.477 20.5142 31.5544 20.5343 30.6331 20.5159C30.4587 20.513 30.2804 20.3662 30.1194 20.2336C30.0917 20.2107 30.0642 20.1882 30.0375 20.1669C30.0089 20.1434 30.1162 19.8397 30.1718 19.8363C31.0704 19.7839 31.3963 19.1745 31.7212 18.5669C31.8849 18.2612 32.0482 17.9559 32.284 17.7223C34.4183 15.6065 36.5978 13.5311 39.091 11.8264C39.3342 11.6603 39.6313 11.5076 39.8326 11.7962C39.9877 12.0192 39.8425 12.1455 39.6935 12.2751C39.6284 12.3319 39.5625 12.3892 39.5205 12.4556C39.37 12.6945 39.1028 12.8705 38.8374 13.0456C38.3157 13.3894 37.7997 13.7295 38.1833 14.5344C38.516 15.2313 38.2183 15.355 37.7607 15.545L37.742 15.5528C37.5464 15.6349 37.3459 15.7094 37.1459 15.7839C36.7198 15.9424 36.2946 16.1008 35.9133 16.3314C35.5308 16.5629 35.3479 17.0142 35.9737 17.281C37.3411 17.8632 40.8813 16.9337 41.5724 15.6518C42.2185 14.4524 43.1838 13.5628 44.1484 12.6738C44.6898 12.175 45.2309 11.6764 45.7152 11.1234C46.7595 9.93206 47.9822 8.89721 49.2054 7.86179C49.8136 7.34709 50.422 6.83225 51.0085 6.29797C51.4498 5.89531 51.6327 5.36512 51.2872 4.78627C50.9431 4.21077 50.3593 4.13359 49.8106 4.26278C46.1949 5.11343 42.7017 6.26108 39.5993 8.40365C34.6463 11.8247 29.6851 15.2341 24.6836 18.583C22.9789 19.7256 21.947 19.1669 21.3783 17.1887C20.1149 12.7962 18.2625 8.96571 12.9405 8.37009C10.9959 8.15198 9.56975 9.37008 9.85161 11.3029C9.99422 12.2828 9.86504 13.2056 9.39358 14.125C9.28963 14.328 9.18468 14.5311 9.07963 14.7344C8.35368 16.1392 7.62145 17.5561 7.16711 19.0511C7.12909 19.1761 7.08555 19.3077 7.04068 19.4434C6.63561 20.6674 6.12067 22.2233 8.57814 22.3094C8.67882 22.3128 8.87178 22.5661 8.84828 22.6601C8.7946 22.8833 8.68552 23.1483 8.51103 23.2775C6.15537 25.0141 4.21917 27.1163 3.38696 29.9603C2.96583 31.3965 3.24435 32.8881 4.47083 34.0005C5.34834 34.7958 6.46913 35.2571 7.45233 34.5878C8.34914 33.9773 9.33328 33.5677 10.3154 33.159C11.1799 32.7992 12.0428 32.4401 12.8432 31.9451C13.0361 31.8258 13.2705 31.7166 13.5076 31.6061C14.1634 31.301 14.8406 30.9854 14.7223 30.4149C14.5361 29.5208 13.5915 28.6919 12.8046 28.0408C12.0244 27.395 10.0362 23.0577 10.2727 22.0158C10.604 20.5567 11.3499 19.2935 12.0965 18.029C12.7338 16.9495 13.3716 15.8691 13.7526 14.6653C13.9103 14.1686 14.5143 13.8968 15.0965 14.0948C15.4916 14.2287 15.4244 14.5914 15.3617 14.9293C15.36 14.9386 15.3583 14.9479 15.3566 14.9572C15.1205 16.2559 14.889 17.5562 14.6574 18.8564C14.5416 19.5064 14.4259 20.1563 14.3096 20.8061C14.2358 21.2222 14.3649 21.5544 14.7961 21.6383C15.6267 21.801 15.6082 22.1752 15.2341 22.8178C14.8364 23.499 14.7811 24.3312 15.2257 24.9604C15.672 25.5929 16.4186 25.7255 17.177 25.3463C17.6501 25.1114 18.0176 25.3211 18.0125 25.7976C17.9823 28.343 19.0477 27.769 20.3447 26.6584C20.464 26.5561 20.6265 26.4995 20.7835 26.4449C20.812 26.435 20.8404 26.4251 20.8682 26.4151C20.9912 26.3712 21.1144 26.3275 21.2376 26.2838C23.6789 25.4175 26.1172 24.5524 27.4955 22.0527C27.602 21.8575 27.9514 21.7629 28.2235 21.6893C28.2389 21.6851 28.2542 21.681 28.2691 21.6769C29.8453 21.2486 31.4545 21.2422 33.0627 21.2358C34.2705 21.231 35.4774 21.2262 36.6699 21.0427C37.8462 20.8615 39.1278 20.1752 39.138 19.0394C39.1473 18.1236 38.4463 18.1805 37.746 18.2373C37.443 18.262 37.14 18.2865 36.8947 18.2323C36.845 18.222 36.7927 18.2238 36.7084 18.2266Z" fill="white"/>
<path d="M18.1822 31.05C17.8903 32.9929 18.6319 34.6556 21.6671 34.634H21.6654C24.2576 34.5282 27.1906 32.9593 30.0561 30.9528C31.9486 29.6273 33.5846 28.2295 34.645 26.1642C35.4253 24.6458 35.0241 23.4277 33.8481 22.3623C33.3296 21.8925 32.8347 21.8405 32.2541 22.4076C30.1936 24.4243 27.6284 25.525 24.9942 26.6323C24.3229 26.9147 23.5584 27.0557 22.7884 27.1977C20.7369 27.576 18.647 27.9612 18.1822 31.05Z" fill="white"/>
</svg>
