<svg xmlns="http://www.w3.org/2000/svg" viewBox="0 0 256 253"><path fill="#623ae7" d="M129.263 0a6.75 6.75 0 0 1 5.88 3.374l15.256 26.424l65.258-.482a6.75 6.75 0 0 1 5.892 3.373l16.843 29.172a6.75 6.75 0 0 1-.038 6.811l-15.569 26.29a6.7 6.7 0 0 1-.887 1.182l33.195 56.28a6.75 6.75 0 0 1 .021 6.72l-16.94 29.706a6.75 6.75 0 0 1-5.86 3.405h-30.513l-32.21 56.756a6.75 6.75 0 0 1-5.868 3.417h-33.686a6.75 6.75 0 0 1-5.88-3.438l-15.022-26.7l-67.31.06a6.75 6.75 0 0 1-5.831-3.343l-17.256-29.523a6.75 6.75 0 0 1-.018-6.777l15.256-26.425L.929 100.008a6.75 6.75 0 0 1-.025-6.79l16.843-29.172a6.75 6.75 0 0 1 5.917-3.374l30.553.339a6.7 6.7 0 0 1 1.789.262L89.258 3.562a6.75 6.75 0 0 1 5.81-3.379z"/><path fill="#fff" d="m180.679 97.445l36.108.025l33.198 58.74h-34.51l-17.266-30.239l-68.54 119.948l-17.218-29.263zM57.85 66.893l69.028 118.902l-17.872 30.86l-67.905-.622l17.255-29.887l34.82.166L23.567 66.981zm37.24-60.8l17.256 29.887l-17.554 30.07l138.147-.616l-17.064 29.733l-137.896.33L59.917 66.05z"/></svg>