<svg xmlns="http://www.w3.org/2000/svg" fill="none" viewBox="-3.26 -3.26 88.13 43.83" preserveAspectRatio="xMidYMid meet">
  <g>
    <path fill="#32D2A1" d="M30.5 1.8c.4 0 .5 0 .8.3 1.6 1.6 2.2 20 2.4 23.6.3 3.2.6 6.6 1.2 10 1-4.2 1-9 1.6-13.2.2-1 .5-5.3 1.6-5.6 2.7-.6 2.2 3.7 4.3 4.7 2.2 1 2.9-2 4-1.6.8 1.3-2 3.1-3.2 3-3-.2-3.2-3.7-4.6-5.2-1 2.4-1 5.8-1.3 8.4l-.7 6.1c-.1 1.3-.5 4.5-1.8 5-.7-.2-1.2-1.6-1.2-2.3-1-7.1-1.2-14.3-1.8-21.5-.2-3.4-.3-6.7-1-10-1.2 7.8-1.2 15.6-2 23.3a21 21 0 0 1-1 6.1c-.1.6-.2.6-.7.8-1 0-1.3-1.4-1.4-2.2-1.2-7.5-1.2-15.3-2.4-22.8-.5 1.1-.6 2.5-.9 3.7-.6 4.2-.8 8.5-1.6 12.7-.1.8-.6 2.6-1.7 2.4-1.3-1-1.5-3.5-1.8-5-.5-2.5-.8-5.3-1.7-7.7-1 2-1.9 9.3-4 9.5-2-.4-2-6-3.5-6.3-1.9.9-1.9 8.7-5.6 5.6-.7-.5-2.4-2.3-2.5-3.1.1-.4 0-.3.3-.6 1.2.1 3.3 4.7 4.2 2.8 1-2.1 3-10 5.8-3.5l1.4 4c1.4-2.5 1.9-8.7 3.5-9.7 1-.2 1.7 1.2 2 2 1 3.2 1 7.8 2.2 10.8l1.5-10c.2-2.2.4-4.3.8-6.4.1-.8.5-2.5 1.4-2.6.4 0 .7.4 1 .6 1 2.7 1.3 10 1.6 13.2.3 3.9.6 7.2 1.3 11.1.5-1.8.6-4.6.8-6.6.5-6.3.8-12.5 1.4-18.8.2-1.5.3-3.9 1.3-5Z"/>
    <path fill="#569C86" d="M46.7 0c.8 0 1 .5 1.3 1.3.6 2.3.7 4.8.9 7.2.8 8.3.6 17 2 25.1.6-2.6.7-5.4 1-8.1.6-6.8.7-13.8 1.8-20.6 0-.5.4-1.1.8-1.4l.6.1c1.6.9 2.3 15.5 2.5 18 .2 2.3.4 4.7 1 6.8.5-1.7.7-3.6 1-5.4l.9-7.6c.2-1.5.3-3.3.9-4.8.1-.3.4-.7.7-.9h.6c1.5.7 2.4 9 2.8 10.8.1.7.4 1.4.7 2 1.4-3 1.1-7.2 3.3-9.4 1.5-1.5 2.8 4 3.2 4.7l.9 1.7c1.7-2 1.5-4 3-6 1.4-2.1 5 2 5 3.4-.1.3 0 .2-.3.3-.5 0-2.4-2.7-3.8-3.3-.9 1.7-1.6 5.2-3.3 6.3-1 .7-2.4-1-2.6-2-.5-1.4-1-3-1.6-4.3-1 1.7-1.5 5.4-2.2 7.5-.3.9-.5 1.8-1.4 2.2H66c-1.8-1-2.7-10.2-3.5-12.7-1.5 5-1 13.3-3 18.3-.1.3-.5.6-.7.6-1.3 0-1.4-2.1-1.5-3-.8-5.2-1-10.4-1.6-15.7-.2-2-.3-4.1-.8-6-.5 2.3-.8 5.5-1 7.9-.5 6.4-.6 12.8-1.4 19.1-.2 1-.4 2.5-1.2 3.1-1 .2-1.4-1.6-1.5-2.3-1-7.5-1.2-15-1.8-22.4-.3-3-.4-6-1-9-1 4-1.2 10-1.7 14.1-.2 1-.5 4-1.4 4.5-2 1.3-2.9-2.8-3.5-3.6-.3-.6-1-.9-1.5-1-2.2-.3-2.2 2-3.4 1.7-.4-1 .8-2.3 1.7-2.7 4-1.8 5 4.2 6 4.7 1-.8 1.8-12.5 2-14.3.4-1.5.2-3.6 1.6-4.9Z"/>
    
    
  </g>
  <defs>
    <clipPath id="a">
      <path fill="#fff" d="M0 0h230.1v37.3H0z"/>
    </clipPath>
  </defs>
</svg>