<svg fill="#fff" xmlns:dc="http://purl.org/dc/elements/1.1/" xmlns:cc="http://creativecommons.org/ns#" xmlns:rdf="http://www.w3.org/1999/02/22-rdf-syntax-ns#" xmlns:svg="http://www.w3.org/2000/svg" xmlns="http://www.w3.org/2000/svg" xmlns:sodipodi="http://sodipodi.sourceforge.net/DTD/sodipodi-0.dtd" xmlns:inkscape="http://www.inkscape.org/namespaces/inkscape" viewBox="0.22 0.22 34.30 39.26" version="1.1" id="svg120" inkscape:version="1.0.2 (e86c870879, 2021-01-15)" sodipodi:docname="logo.svg" inkscape:export-filename="./logo.png" inkscape:export-xdpi="100" inkscape:export-ydpi="100" preserveAspectRatio="xMidYMid meet">
  <defs id="defs114"/>
  <sodipodi:namedview id="base" pagecolor="#ffffff" bordercolor="#666666" borderopacity="1.0" inkscape:pageopacity="1" inkscape:pageshadow="2" inkscape:zoom="2" inkscape:cx="45.74006" inkscape:cy="103.62972" inkscape:document-units="mm" inkscape:current-layer="layer1" inkscape:document-rotation="0" showgrid="false" inkscape:window-width="1920" inkscape:window-height="1012" inkscape:window-x="0" inkscape:window-y="0" inkscape:window-maximized="1" fit-margin-top="2" fit-margin-left="2" fit-margin-right="2" fit-margin-bottom="2" inkscape:snap-global="false"/>
  <metadata id="metadata117">
    <rdf:RDF>
      <cc:Work rdf:about="">
        <dc:format>image/svg+xml</dc:format>
        <dc:type rdf:resource="http://purl.org/dc/dcmitype/StillImage"/>
        <dc:title/>
      </cc:Work>
    </rdf:RDF>
  </metadata>
  <g inkscape:label="Layer 1" inkscape:groupmode="layer" id="layer1" transform="translate(-46.653036,-127.37783)">
    <path d="m 71.560318,141.48698 c 2.276589,0.19412 4.076186,0.84372 5.39879,1.94879 1.615007,1.33 2.42251,3.23001 2.42251,5.70002 0,2.48057 -0.807503,4.39113 -2.42251,5.73169 -1.604451,1.33001 -3.910849,1.99501 -6.919195,1.99501 H 66.01823 v 8.2017 h -6.095858 v -16.59136 c 3.797355,-2.67672 7.653774,-5.10258 11.637946,-6.98585 z m -5.542088,4.35546 v 6.60253 h 3.372514 c 1.182227,0 2.095286,-0.285 2.739178,-0.855 0.643891,-0.58056 0.965837,-1.39862 0.965837,-2.45418 0,-1.05556 -0.321946,-1.86834 -0.965837,-2.43834 -0.643892,-0.57001 -1.556951,-0.85501 -2.739178,-0.85501 z" style="font-style:normal;font-variant:normal;font-weight:bold;font-stretch:normal;font-size:32.4268px;line-height:1.25;font-family:sans-serif;-inkscape-font-specification:'sans-serif, Bold';font-variant-ligatures:normal;font-variant-caps:normal;font-variant-numeric:normal;font-variant-east-asian:normal;fill:#fff;fill-opacity:1;stroke:none;stroke-width:0.264583" id="path2223" sodipodi:nodetypes="ccscscccccccscsssc"/>
    
    
    
    <g id="g2239" transform="translate(42.041608,11.459915)">
      <path style="fill:#fff;stroke:none;stroke-width:0.264583px;stroke-linecap:butt;stroke-linejoin:miter;stroke-opacity:1" d="m 27.894254,129.39607 c -3.25161,-4.01384 -2.65489,-6.79285 -0.728638,-9.09261 -2.134965,-0.0137 -4.642444,-0.12021 -6.370534,4.67585 -4.134299,0.0803 -4.437171,-3.11951 -4.48854,-6.20362 -1.859141,2.96638 -2.878913,5.02914 -1.495979,9.34664 -4.921996,-1.38523 -5.5668734,2.41507 -7.6020931,4.32371 3.9580871,-2.05625 8.8579831,-2.84843 10.5409231,3.09271 2.800323,-2.02787 5.8308,-4.05685 10.168201,-6.09213 0.01737,-0.008 -0.01127,-0.0357 -0.02334,-0.0505 z" id="path2231" sodipodi:nodetypes="sccccccsss"/>
      <circle style="fill:#fff;stroke:none;stroke-width:0.1;stroke-linecap:round" id="circle2233" cx="7.4886017" cy="132.36996" r="0.87717384"/>
      <circle style="fill:#fff;stroke:none;stroke-width:0.1;stroke-linecap:round" id="circle2235" cx="16.220198" cy="118.79509" r="0.87717384"/>
      <circle style="fill:#fff;stroke:none;stroke-width:0.1;stroke-linecap:round" id="circle2237" cx="26.696749" cy="120.39225" r="0.87717384"/>
    </g>
    <g id="g235">
      
      
      
      
      
      
    </g>
  </g>
</svg>