<svg xmlns="http://www.w3.org/2000/svg" viewBox="0 0 400 400">
	<path
		d="M 189.348 65.420 C 166.632 70.930, 151.377 92.207, 153.352 115.624 C 154.180 125.437, 157.945 136.701, 164.950 150.320 C 175.162 170.177, 177.621 172.879, 182.907 170.050 C 185.750 168.528, 185.646 163.709, 182.621 156.869 C 178.519 147.594, 175 135.101, 175 129.814 C 175 122.323, 176.856 117.376, 181.681 112.010 C 186.792 106.325, 192.423 103.809, 200.043 103.804 C 209.882 103.797, 217.749 108.448, 222.423 117.035 C 224.769 121.347, 225.291 123.516, 225.278 128.906 C 225.258 136.746, 223.942 141.425, 217.111 157.929 C 214.281 164.765, 211.728 171.965, 211.437 173.929 C 210.387 181.003, 217.431 189, 224.711 189 C 226.590 189, 232.817 186.997, 238.549 184.548 C 266.194 172.739, 277.327 172.094, 287.990 181.681 C 293.684 186.800, 296.260 192.495, 296.276 200 C 296.298 209.741, 291.540 217.755, 282.965 222.423 C 273.504 227.572, 260.920 225.915, 243.500 217.228 C 234.930 212.954, 204.533 195.819, 177 179.741 C 140.004 158.137, 130.150 153.995, 114 153.262 C 105.029 152.855, 102.553 153.104, 97 154.971 C 80.930 160.373, 69.752 172.335, 65.492 188.693 C 58.952 213.801, 75.956 240.683, 101.781 246.062 C 117.383 249.313, 134.019 244.539, 162.421 228.663 C 168.977 224.999, 174.659 222, 175.048 222 C 175.437 222, 176.311 222.670, 176.990 223.488 C 178.005 224.711, 177.247 226.711, 172.723 234.738 C 165.004 248.436, 158.678 261.383, 155.982 269 C 152.794 278.010, 152.119 292.844, 154.498 301.632 C 158.774 317.429, 172.022 330.166, 188.693 334.508 C 213.632 341.004, 239.918 324.653, 245.617 299.099 C 248.783 284.906, 245.663 270.313, 235.050 249.680 C 224.838 229.823, 222.379 227.121, 217.093 229.950 C 214.250 231.472, 214.354 236.291, 217.379 243.131 C 221.481 252.406, 225 264.899, 225 270.186 C 225 277.677, 223.144 282.624, 218.319 287.990 C 213.208 293.675, 207.577 296.191, 199.957 296.196 C 190.106 296.203, 182.251 291.552, 177.563 282.938 C 175.113 278.437, 174.690 276.566, 174.765 270.568 C 174.860 262.960, 176.625 256.968, 183.885 239.607 C 186.160 234.166, 188.263 228.091, 188.558 226.107 C 189.613 218.997, 182.589 211, 175.289 211 C 173.410 211, 167.183 213.003, 161.451 215.452 C 133.806 227.261, 122.673 227.906, 112.010 218.319 C 106.350 213.231, 103.815 207.601, 103.760 200 C 103.689 190.271, 108.442 182.254, 117.062 177.563 C 121.541 175.125, 123.463 174.686, 129.432 174.739 C 139.499 174.827, 148.731 178.530, 172.528 192.022 C 252.239 237.216, 255.163 238.793, 268 243.493 C 276.936 246.764, 292.009 247.990, 299.648 246.067 C 316.582 241.803, 330.044 228.445, 334.449 211.535 C 341.050 186.193, 324.160 159.342, 298.219 153.938 C 282.617 150.687, 265.981 155.461, 237.579 171.337 C 231.023 175.001, 225.341 178, 224.952 178 C 224.563 178, 223.689 177.330, 223.010 176.512 C 221.995 175.289, 222.753 173.289, 227.277 165.262 C 234.996 151.564, 241.322 138.617, 244.018 131 C 247.206 121.990, 247.881 107.156, 245.502 98.368 C 239.066 74.593, 213.462 59.571, 189.348 65.420"
		fill="#fff"
	/>
</svg>
