<svg fill="#fff" xmlns="http://www.w3.org/2000/svg" xmlns:xlink="http://www.w3.org/1999/xlink" xmlns:serif="http://www.serif.com/" viewBox="-75.53 -75.45 1665.47 746.37" version="1.1" xml:space="preserve" style="fill-rule:evenodd;clip-rule:evenodd;stroke-linejoin:round;stroke-miterlimit:2;" preserveAspectRatio="xMidYMid meet"><g><path d="M0.175,4.946l0,101.55l152.775,-0l0,481.783l114.412,0l0,-481.783l152.776,-0l-0,-101.55l-419.963,-0Z" style="fill:#0563a5;fill-rule:nonzero;"/><path d="M846.875,4.95l0,358.504l-231.771,-358.508l-102.083,0.004l-0,585.417l114.408,-0l0,-359.375l231.771,359.375l101.913,-0l-0,-585.417l-114.238,-0Z" style="fill:#0563a5;fill-rule:nonzero;"/><path d="M1458.51,528.558c-45.141,46.009 -99.479,66.667 -165.279,66.667c-62.5,0 -115.104,-21.354 -157.812,-64.063c-25.521,-25.52 -41.146,-55.208 -47.742,-88.02c-6.6,-32.813 -9.896,-81.425 -9.896,-145.488c0,-64.062 3.296,-112.671 9.896,-145.483c6.596,-33.679 22.221,-62.5 47.742,-87.85c42.883,-42.709 95.487,-64.063 157.812,-64.063c133.159,0 204.688,85.421 220.313,187.504l-115.104,0c-13.888,-56.77 -48.438,-85.416 -105.209,-85.416c-30.383,-0 -55.033,10.762 -73.091,31.25c-21.355,27.083 -27.951,48.608 -27.951,164.408c0,115.104 4.863,138.196 27.951,165.279c17.187,20.484 41.841,30.379 73.091,30.379c33.679,0 60.938,-10.762 81.425,-32.812c17.188,-19.792 26.213,-46.004 26.213,-78.125l-0,-22.221l-82.463,0l0,-95.312l195.834,-0l-0,85.416c0.17,85.242 -15.455,135.242 -55.73,177.95" style="fill:#0563a5;fill-rule:nonzero;"/></g></svg>